<?xml version="1.0" encoding="UTF-8"?>
<svg width="100px" height="100px" viewBox="0 0 100 100" version="1.1" xmlns="http://www.w3.org/2000/svg" xmlns:xlink="http://www.w3.org/1999/xlink">
    <!-- Generator: Sketch 45.1 (43504) - http://www.bohemiancoding.com/sketch -->
    <title>dashboard</title>
    <desc>Created with Sketch.</desc>
    <defs></defs>
    <g id="Page-1" stroke="none" stroke-width="1" fill="none" fill-rule="evenodd">
        <g id="dashboard" fill="#000000">
            <path d="M26.5481604,22.0695268 L26.5481604,22.0695268 C28.608001,19.9988283 28.608001,16.641936 26.5481604,14.5712376 L20.5424337,8.49563129 C20.1654694,8.12059386 19.9549569,7.6164452 19.9549569,7.08401502 C19.94027,6.06096211 20.7052138,5.19530196 21.7186113,5.0895537 C26.9018704,4.57556798 32.0557556,6.29090309 35.9086244,9.8014993 C39.7663889,13.3182437 41.9657553,18.304397 41.9608596,23.5340172 C41.9608596,24.0148029 41.9608596,24.4562404 41.9045598,24.9751446 L41.9045598,25.8395751 C41.9045598,28.1549701 42.6303384,30.4125724 43.9790873,32.2951373 L39.6905065,36.5607269 L35.7703226,32.6222192 C33.5379107,30.3793724 30.185621,33.7461018 32.4192569,35.9889486 L36.3394408,39.9274563 L32.1512206,44.1352533 C30.0375279,42.6080517 27.4563016,41.8825695 24.865284,42.0891474 C19.7444444,42.4887775 14.6909198,40.7304053 10.9237246,37.2284165 C7.15163387,33.7276573 5.00489564,28.8042152 5,23.644684 C5,23.0298685 5.02937384,22.4150531 5.09056934,21.8002376 C5.27782758,20.1340877 7.29972699,19.4282796 8.48080019,20.6136438 L14.4853029,26.6474426 C16.5463674,28.7169114 19.8876419,28.7169114 21.9487064,26.6474426 L26.5481604,22.0695268 Z M94.5363637,76.3897014 L94.5363637,76.3897014 C94.532692,71.2313998 92.3859537,66.3079576 88.613863,62.8059688 C84.8466678,59.30398 79.7931432,57.5468375 74.6723036,57.9452379 C72.0763903,58.1468974 69.4951641,57.4164966 67.386367,55.889295 L63.1602056,60.140129 L67.0901808,64.0884739 C69.3225927,66.3313206 65.971527,69.69805 63.7378912,67.4552033 L59.8091399,63.5068584 L55.6294871,67.7048183 C56.978236,69.5886129 57.7052385,71.8462152 57.7052385,74.1603806 L57.7052385,75.0248111 C57.7052385,75.5055968 57.6477148,75.9470343 57.6477148,76.4659385 C57.6428191,81.6967883 59.8421855,86.6829416 63.6950543,90.1984564 C67.5540427,93.7102822 72.7079279,95.4243877 77.8899631,94.910402 C79.5434656,94.6989055 80.2227356,92.6675552 79.0330951,91.495717 L73.0273685,85.4631478 C70.9626322,83.3924493 70.9626322,80.0257199 73.0273685,77.9550215 L77.6170311,73.3439056 C79.6780957,71.2744368 83.0193701,71.2744368 85.0804346,73.3439056 L91.0947286,79.3777045 C92.2709062,80.5729057 94.3025969,79.8670976 94.4886312,78.1960292 C94.5082138,77.5996582 94.5363637,76.9897613 94.5363637,76.3897014 Z M89.8279817,26.0904198 L30.5111811,85.6500517 C29.6311898,86.5243192 28.5468055,87.1588088 27.355941,87.494498 L11.8747028,91.9949471 C10.7756315,92.3121919 9.58966269,92.0047842 8.78188206,91.1932278 C7.97410142,90.3816714 7.66812391,89.190159 7.9838927,88.0859505 L12.4389253,72.4991492 C12.7742766,71.3027183 13.4045903,70.2120357 14.2747904,69.3291608 L73.5817997,9.76829927 C76.0969349,7.22788183 80.1847944,7.22788183 82.6999296,9.76829927 L89.8328774,16.9345881 C92.3565799,19.4614796 92.3565799,23.5684468 89.8279817,26.0904198 Z M78.3917662,14.7114155 L78.3917662,14.7114155 C77.5558356,14.1777557 76.4653318,14.3080965 75.7762704,15.0237417 L17.9465205,73.1238017 C17.6123931,73.4644095 17.4067762,73.9107655 17.368835,74.3866326 L15.2930835,81.6439142 L18.2867675,84.6515914 L25.9215184,82.4468632 C26.2654371,82.3546409 26.5861016,82.1726555 26.839451,81.9230404 L27.967896,80.7893207 C26.2079134,79.7281493 24.5923521,78.4407257 23.1677208,76.9516427 C22.756487,76.5384867 22.3746271,76.1253307 22.0111258,75.7170933 C21.7626721,75.4576412 21.7626721,75.0543222 22.0111258,74.7948701 L78.7026394,17.8666484 C79.6156763,16.9542622 79.4626875,15.4270607 78.3917662,14.7114155 Z" id="Page-1"></path>
        </g>
    </g>
</svg>