<?xml version="1.0" encoding="UTF-8"?>
<svg width="100px" height="100px" viewBox="0 0 100 100" version="1.1" xmlns="http://www.w3.org/2000/svg" xmlns:xlink="http://www.w3.org/1999/xlink">
    <!-- Generator: Sketch 45.1 (43504) - http://www.bohemiancoding.com/sketch -->
    <title>document-tick</title>
    <desc>Created with Sketch.</desc>
    <defs></defs>
    <g id="Page-1" stroke="none" stroke-width="1" fill="none" fill-rule="evenodd">
        <g id="document-tick" fill-rule="nonzero" fill="#000000">
            <g id="file" transform="translate(9.934092, 6.207031)">
                <path d="M61.963106,49.7588802 C50.6498894,49.7588802 41.4459585,58.962811 41.4459585,70.2758213 C41.4459585,81.5888315 50.6498894,90.7929688 61.963106,90.7929688 C73.2763226,90.7929688 82.4802534,81.5890379 82.4802534,70.2758213 C82.4802534,58.9626047 73.2763226,49.7588802 61.963106,49.7588802 Z M59.3944903,81.5287844 L47.2595974,69.3938914 L51.6368502,65.0166386 L59.3944903,72.7740724 L70.9569749,61.2115878 L75.3342277,65.5888406 L59.3944903,81.5287844 Z" id="Shape"></path>
                <polygon id="Shape" points="44.4235552 3.09521484 44.4235552 17.5395508 58.8678911 17.5395508"></polygon>
                <path d="M10.3761919,71.7058105 L10.3761919,65.5153809 L35.6810177,65.5153809 C36.2133946,62.56853 37.232133,59.7892334 38.6487097,57.2614746 L10.3761919,57.2614746 L10.3761919,51.0710449 L43.4233881,51.0710449 C48.2304631,46.429048 54.7685886,43.5684505 61.963106,43.5684505 L61.963106,23.7299805 L38.2331255,23.7299805 L38.2331255,0 L0.058809082,0 L0.058809082,85.6342773 L40.1271906,85.6342773 C37.31818,81.6519739 35.5679392,76.8717241 35.2941158,71.7058105 L10.3761919,71.7058105 Z M10.3761919,36.626709 L51.6457231,36.626709 L51.6457231,42.8171387 L10.3761919,42.8171387 L10.3761919,36.626709 Z" id="Shape"></path>
            </g>
        </g>
    </g>
</svg>