<?xml version="1.0" encoding="UTF-8"?>
<svg width="100px" height="100px" viewBox="0 0 100 100" version="1.1" xmlns="http://www.w3.org/2000/svg" xmlns:xlink="http://www.w3.org/1999/xlink">
    <!-- Generator: Sketch 45.1 (43504) - http://www.bohemiancoding.com/sketch -->
    <title>flask</title>
    <desc>Created with Sketch.</desc>
    <defs></defs>
    <g id="Page-1" stroke="none" stroke-width="1" fill="none" fill-rule="evenodd">
        <g id="flask" fill="#000000">
            <path d="M90.4757051,82.34375 C92.6632161,85.8203299 93.0831338,88.7988157 91.7354708,91.2792969 C90.3878078,93.759778 87.6436946,95 83.5030489,95 L16.0030489,95 C11.8624032,95 9.11829,93.759778 7.77062702,91.2792969 C6.42296403,88.7988157 6.8428817,85.8203299 9.03039264,82.34375 L38.5030489,35.8789062 L38.5030489,12.5 L34.7530489,12.5 C33.7374188,12.5 32.8585214,12.12891 32.1163301,11.3867187 C31.3741389,10.6445275 31.0030489,9.76563008 31.0030489,8.75 C31.0030489,7.73436992 31.3741389,6.85547246 32.1163301,6.11328125 C32.8585214,5.37109004 33.7374188,5 34.7530489,5 L64.7530489,5 C65.768679,5 66.6475764,5.37109004 67.3897676,6.11328125 C68.1319589,6.85547246 68.5030489,7.73436992 68.5030489,8.75 C68.5030489,9.76563008 68.1319589,10.6445275 67.3897676,11.3867187 C66.6475764,12.12891 65.768679,12.5 64.7530489,12.5 L61.0030489,12.5 L61.0030489,35.8789062 L90.4757051,82.34375 Z M44.8311739,39.8632813 L28.8936739,65 L70.6124239,65 L54.6749239,39.8632813 L53.5030489,38.046875 L53.5030489,12.5 L46.0030489,12.5 L46.0030489,38.046875 L44.8311739,39.8632813 Z" id=""></path>
        </g>
    </g>
</svg>