<?xml version="1.0" encoding="UTF-8"?>
<svg width="100px" height="100px" viewBox="0 0 100 100" version="1.1" xmlns="http://www.w3.org/2000/svg" xmlns:xlink="http://www.w3.org/1999/xlink">
    <!-- Generator: Sketch 45.1 (43504) - http://www.bohemiancoding.com/sketch -->
    <title>heart-pulse</title>
    <desc>Created with Sketch.</desc>
    <defs></defs>
    <g id="Page-1" stroke="none" stroke-width="1" fill="none" fill-rule="evenodd">
        <g id="heart-pulse" fill="#000000">
            <path d="M70.3333333,56.8333333 L86.6158854,56.8333333 C86.4379331,57.0468761 86.2599835,57.2337232 86.0820313,57.3938802 C85.904079,57.5540373 85.7439243,57.6874995 85.6015625,57.7942708 L85.4414063,58.0078125 L52.1822917,90.0390625 C51.5416635,90.6796907 50.7586852,91 49.8333333,91 C48.9079815,91 48.1250032,90.6796907 47.484375,90.0390625 L14.171875,57.9010417 C13.9939227,57.8298608 13.6202285,57.4739615 13.0507813,56.8333333 L32.75,56.8333333 C33.53299,56.8333333 34.235891,56.5931014 34.858724,56.1126302 C35.4815569,55.6321591 35.8819436,55.0182329 36.0598958,54.2708333 L39.796875,39.2695313 L49.9401042,74.8776042 C50.1536469,75.5894133 50.562931,76.176647 51.1679688,76.6393229 C51.7730065,77.1019988 52.46701,77.3333333 53.25,77.3333333 C53.9973996,77.3333333 54.6736081,77.1019988 55.2786458,76.6393229 C55.8836836,76.176647 56.2929677,75.5894133 56.5065104,74.8776042 L64.3007813,48.9856771 L67.2903646,54.9648438 C67.9309928,56.2105097 68.9453056,56.8333333 70.3333333,56.8333333 Z M97.6666667,33.984375 C97.6666667,39.1449911 95.8337857,44.4834794 92.1679688,50 L72.46875,50 L66.5429688,38.2018229 C66.2582451,37.5967852 65.8044736,37.1163212 65.1816406,36.7604167 C64.5588076,36.4045121 63.9092916,36.2621524 63.2330729,36.3333333 C61.6315024,36.5112856 60.6349846,37.3298538 60.2434896,38.7890625 L53.3567708,61.7447917 L42.8932292,25.1223958 C42.6796864,24.4105867 42.2615049,23.823353 41.6386719,23.3606771 C41.0158389,22.8980012 40.3129379,22.6666667 39.5299479,22.6666667 C38.7469579,22.6666667 38.0529544,22.9068986 37.4479167,23.3873698 C36.8428789,23.8678409 36.4513898,24.4817671 36.2734375,25.2291667 L30.0807292,50 L7.49869792,50 C3.83288098,44.4834794 2,39.1449911 2,33.984375 C2,26.1544747 4.25996004,20.0330082 8.77994792,15.6197917 C13.2999358,11.2065752 19.5459671,9 27.5182292,9 C29.7248374,9 31.9759,9.38259166 34.2714844,10.1477865 C36.5670688,10.9129813 38.7024641,11.945089 40.6777344,13.2441406 C42.6530047,14.5431923 44.3524234,15.7621471 45.7760417,16.9010417 C47.1996599,18.0399363 48.5520769,19.2499936 49.8333333,20.53125 C51.1145897,19.2499936 52.4670068,18.0399363 53.890625,16.9010417 C55.3142432,15.7621471 57.013662,14.5431923 58.9889323,13.2441406 C60.9642026,11.945089 63.0995979,10.9129813 65.3951823,10.1477865 C67.6907667,9.38259166 69.9418292,9 72.1484375,9 C80.1206996,9 86.3667309,11.2065752 90.8867188,15.6197917 C95.4067066,20.0330082 97.6666667,26.1544747 97.6666667,33.984375 Z" id="ïˆ"></path>
        </g>
    </g>
</svg>