<?xml version="1.0" encoding="UTF-8"?>
<svg width="100px" height="100px" viewBox="0 0 100 100" version="1.1" xmlns="http://www.w3.org/2000/svg" xmlns:xlink="http://www.w3.org/1999/xlink">
    <!-- Generator: Sketch 45.1 (43504) - http://www.bohemiancoding.com/sketch -->
    <title>logo-outer</title>
    <desc>Created with Sketch.</desc>
    <defs></defs>
    <g id="Page-1" stroke="none" stroke-width="1" fill="none" fill-rule="evenodd">
        <g id="logo-outer" stroke-width="2" stroke="#000000" fill="#000000">
            <g id="Group-4" transform="translate(1.000000, 1.000000)">
                <g id="Group-3">
                    <path d="M48.86896,3.17016 C23.6712,3.17016 3.17072,23.6712 3.17072,48.86896 C3.17072,74.06672 23.6712,94.56776 48.86896,94.56776 C74.06784,94.56776 94.56776,74.06672 94.56776,48.86896 C94.56776,23.6712 74.06784,3.17016 48.86896,3.17016 Z M48.86896,97.73792 C21.92344,97.73792 0,75.81448 0,48.86896 C0,21.92288 21.92344,0 48.86896,0 C75.8156,0 97.73792,21.92288 97.73792,48.86896 C97.73792,75.81448 75.8156,97.73792 48.86896,97.73792 L48.86896,97.73792 Z" id="Fill-3"></path>
                    <path d="M61.5097669,78.4583246 C60.9128069,78.4583246 60.3410469,78.1200846 60.0716869,77.5444046 C59.7032069,76.7497646 60.0464869,75.8061646 60.8394469,75.4371246 C71.1272069,70.6452046 77.7738469,60.2191246 77.7738469,48.8774446 C77.7738469,37.2815246 70.9172069,26.7602446 60.3046469,22.0758446 C59.5038469,21.7230446 59.1420869,20.7856046 59.4954469,19.9853646 C59.8499269,19.1845646 60.7828869,18.8211246 61.5853669,19.1761646 C73.3453669,24.3668046 80.9440069,36.0265646 80.9440069,48.8774446 C80.9440069,61.4472046 73.5772069,73.0000046 62.1784069,78.3099246 C61.9616869,78.4112846 61.7343269,78.4583246 61.5097669,78.4583246" id="Fill-6"></path>
                </g>
                <path d="M33.17776,77.3053583 C32.90616,77.3053583 32.63176,77.2375983 32.38144,77.0908783 C22.42464,71.2915183 16.24,60.5378383 16.24,49.0287183 C16.24,37.7895183 21.9296,27.5079183 31.46024,21.5231983 C32.20112,21.0567183 33.18,21.2818383 33.64592,22.0227183 C34.11072,22.7635983 33.88728,23.7419183 33.14584,24.2083983 C24.5448,29.6090383 19.4096,38.8871183 19.4096,49.0287183 C19.4096,59.4150383 24.99224,69.1170383 33.97688,74.3519183 C34.73288,74.7915183 34.9888,75.7619983 34.54808,76.5191183 C34.25408,77.0247983 33.7232,77.3053583 33.17776,77.3053583" id="Fill-7"></path>
            </g>
        </g>
    </g>
</svg>