<?xml version="1.0" encoding="UTF-8"?>
<svg width="100px" height="100px" viewBox="0 0 100 100" version="1.1" xmlns="http://www.w3.org/2000/svg" xmlns:xlink="http://www.w3.org/1999/xlink">
    <!-- Generator: Sketch 45.1 (43504) - http://www.bohemiancoding.com/sketch -->
    <title>logo-letter</title>
    <desc>Created with Sketch.</desc>
    <defs></defs>
    <g id="Page-1" stroke="none" stroke-width="1" fill="none" fill-rule="evenodd">
        <g id="logo-letter" stroke="#000000" fill="#000000">
            <path d="M65.3384,41.754 C65.3384,39.03016 62.78144,37.66712 57.67032,37.66712 L37.60328,37.66712 L37.60328,49.14768 L58.49688,49.14768 C63.05696,49.14768 65.3384,48.02992 65.3384,45.79496 L65.3384,41.754 Z M69.92984,45.38112 C69.92984,50.37128 65.98184,52.86608 58.0836,52.86608 L46.64952,52.86608 L66.394,61.49848 C67.19032,61.928 67.58848,62.47904 67.58848,63.15216 C67.58848,63.734 67.4048,64.26208 67.03688,64.73696 C66.66952,65.21128 66.17952,65.44872 65.568,65.44872 C65.26224,65.44872 64.9548,65.35688 64.6496,65.17208 L37.60328,52.5452 L37.60328,63.4736 C37.60328,64.79016 36.83776,65.44872 35.30728,65.44872 C33.7152,65.44872 32.92,64.79016 32.92,63.4736 L32.92,35.46296 C32.92,34.51488 33.424,34.04 34.4348,34.04 L56.98096,34.04 C65.61392,34.04 69.92984,36.68768 69.92984,41.98304 L69.92984,45.38112 L69.92984,45.38112 Z" id="Fill-8"></path>
        </g>
    </g>
</svg>