<?xml version="1.0" encoding="UTF-8"?>
<svg width="100px" height="100px" viewBox="0 0 100 100" version="1.1" xmlns="http://www.w3.org/2000/svg" xmlns:xlink="http://www.w3.org/1999/xlink">
    <!-- Generator: Sketch 45.1 (43504) - http://www.bohemiancoding.com/sketch -->
    <title>logo-inner</title>
    <desc>Created with Sketch.</desc>
    <defs></defs>
    <g id="Page-1" stroke="none" stroke-width="1" fill="none" fill-rule="evenodd">
        <g id="logo-inner" stroke="#000000" stroke-width="2" fill="#000000">
            <g id="Group-4" transform="translate(11.000000, 8.000000)">
                <path d="M3.6969822,63.8895977 C3.2047422,63.1078377 3.4410622,62.0757577 4.2228222,61.5846377 C5.0062622,61.0935177 6.0372222,61.3287177 6.5289022,62.1104777 C13.5350622,73.2673577 25.5705822,79.9268777 38.7244222,79.9268777 C52.1969022,79.9268777 64.7829022,72.6855177 71.5729022,61.0319177 C72.0377022,60.2327977 73.0625022,59.9628777 73.8599422,60.4271177 C74.6585022,60.8935977 74.9273022,61.9172777 74.4625022,62.7135977 C67.0766622,75.3947977 53.3824222,83.2723177 38.7244222,83.2723177 C24.4136222,83.2723177 11.3180222,76.0264777 3.6969822,63.8895977 Z" id="Fill-5"></path>
                <path d="M1.63750982,27.6948 C0.791909815,27.32128 0.409429815,26.33512 0.783509815,25.49064 C7.39486982,10.51456 22.2415898,0.84 38.6087098,0.84 C54.6157498,0.84 69.3308698,10.21944 76.0956698,24.73576 C76.4848698,25.57352 76.1231098,26.56808 75.2864698,26.9584 C74.4487098,27.34816 73.4541498,26.98528 73.0638298,26.1492 C66.8450298,12.80552 53.3215898,4.18544 38.6087098,4.18544 C23.5659898,4.18544 9.92046982,13.07768 3.84278982,26.8408 C3.56670982,27.468 2.95462982,27.83704 2.31118982,27.83704 C2.08606982,27.83704 1.85758982,27.79168 1.63750982,27.6948 Z" id="Fill-4"></path>
            </g>
        </g>
    </g>
</svg>