<?xml version="1.0" encoding="UTF-8"?>
<svg width="100px" height="100px" viewBox="0 0 100 100" version="1.1" xmlns="http://www.w3.org/2000/svg" xmlns:xlink="http://www.w3.org/1999/xlink">
    <!-- Generator: Sketch 45.1 (43504) - http://www.bohemiancoding.com/sketch -->
    <title>presentation</title>
    <desc>Created with Sketch.</desc>
    <defs></defs>
    <g id="Page-1" stroke="none" stroke-width="1" fill="none" fill-rule="evenodd">
        <g id="presentation" fill="#000000">
            <path d="M53.3374547,71.7290209 L53.3374547,71.7290209 C54.9401606,71.7290209 56.240446,73.0353841 56.240446,74.6455814 L56.240446,92.0735987 C56.240446,93.6825659 54.9401606,94.9901592 53.3374547,94.9901592 L46.9094902,94.9901592 C45.3067844,94.9901592 44.006499,93.6825659 44.006499,92.0735987 L44.006499,74.6455814 C44.006499,73.0353841 45.3067844,71.7290209 46.9094902,71.7290209 L53.3374547,71.7290209 Z M60.5257557,64.5501735 L60.5257557,92.0735987 C60.5257557,93.6874863 61.8321629,94.9950796 63.4385419,94.9901592 L69.8665064,94.9901592 C71.4692122,94.9901592 72.7694976,93.6825659 72.7694976,92.0735987 L72.7694976,64.5550939 C72.7694976,62.9448966 71.4692122,61.6373033 69.8665064,61.6373033 L63.4385419,61.6373033 C61.835836,61.6373033 60.5355506,62.9448966 60.5355506,64.5550939 L60.5257557,64.5501735 Z M79.9675936,94.9901592 L86.3955581,94.9901592 C87.9982639,94.9901592 89.2985493,93.6825659 89.2985493,92.0735987 L89.2985493,43.9165228 C89.2985493,42.3075556 87.9982639,40.9999623 86.3955581,40.9999623 L79.9675936,40.9999623 C78.3648877,40.9999623 77.0646023,42.3075556 77.0646023,43.9165228 L77.0646023,92.0735987 C77.0646023,93.6825659 78.3648877,94.9901592 79.9675936,94.9901592 Z M26.5163135,23.4526255 L26.5163135,23.4526255 C30.2322892,23.4526255 33.5797283,21.2027777 35.0000024,17.7585055 C36.4215008,14.3080828 35.6366769,10.3385591 33.0103943,7.70123064 C30.385336,5.06267212 26.4342805,4.2754099 23.0011352,5.70232267 C19.5716631,7.12923544 17.333507,10.4923212 17.333507,14.2268964 C17.333507,19.3194989 21.4412825,23.4526255 26.5163135,23.4526255 Z M12.3062266,51.6821265 L12.3062266,51.6821265 C12.589057,54.180454 14.2529815,56.3085222 16.6062288,57.1745106 L20.4177056,92.3036269 C20.5903424,93.836328 21.8820572,95 23.4210956,95 L29.4621578,95 C30.9975231,95 32.292911,93.8412484 32.4655478,92.3036269 L34.2445635,75.880599 L38.516405,35.7191549 C38.5396682,35.517419 38.7025099,35.3636568 38.9033073,35.3488957 L60.5453456,33.9465849 C62.1382565,33.8789295 63.4581319,32.6820449 63.6870898,31.0964496 C63.8927847,29.2611446 62.5202612,27.6324958 60.6836999,27.5414686 L36.2868196,25.989086 L32.2169998,25.888218 C32.1019086,25.888218 31.9917149,25.9361918 31.9255987,26.027219 L27.1615587,32.0141021 C26.7930221,32.5049109 26.0620707,32.5049109 25.6935341,32.0141021 L20.9294941,25.989086 C20.8584804,25.8980588 20.7531842,25.8451646 20.638093,25.8402442 L17.7828524,25.8402442 C15.5630619,25.8402442 13.4546896,26.786189 11.9768699,28.4492804 C10.4990503,30.1123718 9.79993259,32.3265468 10.0497049,34.5419519 L12.3062266,51.6821265 Z" id="Page-1"></path>
        </g>
    </g>
</svg>