<?xml version="1.0" encoding="UTF-8"?>
<svg width="100px" height="100px" viewBox="0 0 100 100" version="1.1" xmlns="http://www.w3.org/2000/svg" xmlns:xlink="http://www.w3.org/1999/xlink">
    <!-- Generator: Sketch 45.1 (43504) - http://www.bohemiancoding.com/sketch -->
    <title>search</title>
    <desc>Created with Sketch.</desc>
    <defs></defs>
    <g id="Page-1" stroke="none" stroke-width="1" fill="none" fill-rule="evenodd">
        <g id="search" fill-rule="nonzero" fill="#000000">
            <g id="magnifying-glass" transform="translate(6.000000, 6.000000)">
                <path d="M58.6277419,10.0451613 C45.2351613,-3.34741935 23.4377419,-3.34741935 10.0451613,10.0451613 C-3.34451613,23.4406452 -3.34451613,45.2351613 10.0451613,58.6306452 C21.9716129,70.5541935 40.5464516,71.8316129 53.9303226,62.5209677 C54.2119355,63.8535484 54.8564516,65.1251613 55.8929032,66.1616129 L75.3967742,85.6654839 C78.2390323,88.5019355 82.8319355,88.5019355 85.6596774,85.6654839 C88.4990323,82.826129 88.4990323,78.2332258 85.6596774,75.4025806 L66.1558065,55.8929032 C65.1251613,54.8651613 63.8506452,54.2177419 62.5180645,53.936129 C71.8345161,40.5493548 70.5570968,21.9774194 58.6277419,10.0451613 Z M52.47,52.4729032 C42.4712903,62.4716129 26.1987097,62.4716129 16.2029032,52.4729032 C6.21,42.4741935 6.21,26.2045161 16.2029032,16.2058065 C26.1987097,6.21 42.4712903,6.21 52.47,16.2058065 C62.4687097,26.2045161 62.4687097,42.4741935 52.47,52.4729032 Z" id="Shape"></path>
            </g>
        </g>
    </g>
</svg>