<?xml version="1.0" encoding="UTF-8"?>
<svg width="100px" height="100px" viewBox="0 0 100 100" version="1.1" xmlns="http://www.w3.org/2000/svg" xmlns:xlink="http://www.w3.org/1999/xlink">
    <!-- Generator: Sketch 45.1 (43504) - http://www.bohemiancoding.com/sketch -->
    <title>settings</title>
    <desc>Created with Sketch.</desc>
    <defs></defs>
    <g id="Page-1" stroke="none" stroke-width="1" fill="none" fill-rule="evenodd">
        <g id="settings" fill="#000000">
            <path d="M7.96465269,57.4359087 C9.64037209,57.6314862 11.514705,57.7358823 13.487687,57.833671 C14.8700898,57.9314598 16.0525637,58.8247731 16.4471601,60.2136376 C17.1363884,62.3914193 17.9268966,64.4766981 19.0120367,66.3558277 C19.6999498,67.5425073 19.5052822,69.0291604 18.616125,70.1246586 C17.331056,71.6113118 16.0525637,73.0979649 15.0660726,74.3877191 C13.9809325,75.6787948 14.0795816,77.660999 15.2607402,78.8476786 L21.0823525,84.6965025 C22.2635111,85.8831821 24.2364931,85.9862567 25.521562,84.89208 C26.8053157,83.8031891 28.1824571,82.6112237 29.7647887,81.3254339 C30.8499288,80.4321205 32.3296653,80.236543 33.5160852,80.9276716 C35.4890672,81.9187737 37.559383,82.812087 39.6296988,83.504537 C40.9147678,83.9009779 41.9012588,85.0889789 41.9985926,86.4778434 C42.0959263,88.4600476 42.2971705,90.3431416 42.3945043,92.0266937 C42.5891719,93.7089243 43.9715746,95 45.6525553,95 L53.9390798,95 C55.6147992,95 57.0945357,93.7089243 57.1971307,92.0266937 C57.3917983,90.3431416 57.4943934,88.4600476 57.5930425,86.4778434 C57.6903762,85.0889789 58.5795335,83.9009779 59.9606209,83.504537 C62.1295858,82.812087 64.2051629,82.0178839 66.0755498,80.9276716 C67.2567084,80.236543 68.7364449,80.4321205 69.825531,81.3254339 C71.3052675,82.6165096 72.785004,83.9009779 74.070073,84.89208 C75.3551419,85.9822923 77.328124,85.8831821 78.5092825,84.6965025 L84.3308948,78.8476786 C85.5120534,77.660999 85.6146485,75.6787948 84.5255624,74.3877191 C83.4417376,73.0979649 82.2553177,71.7143864 80.9755101,70.1246586 C80.0863528,69.0344463 79.8916853,67.5477931 80.5795983,66.3558277 C81.5660894,64.3736235 82.4552466,62.2936305 83.1431597,60.2136376 C83.5390714,58.9225619 84.7215453,57.9314598 86.1026327,57.833671 C88.0756147,57.7358823 89.9512629,57.5336975 91.6269823,57.4359087 C93.3013864,57.2403312 94.5864554,55.8514668 94.5864554,54.1626288 L94.5864554,45.8373712 C94.5864554,44.153819 93.3013864,42.6671659 91.6269823,42.5640913 C89.9512629,42.3685138 88.0756147,42.2654392 86.1026327,42.166329 C84.7215453,42.0685402 83.5390714,41.1752269 83.1431597,39.7876839 C82.4552466,37.6085807 81.6634231,35.5233019 80.5795983,33.6441723 C79.8916853,32.4574927 80.0863528,30.9708396 80.9755101,29.8766628 C82.260579,28.3900097 83.5390714,26.9033565 84.5255624,25.6122809 C85.6093872,24.3212052 85.5120534,22.339001 84.3308948,21.1523214 L78.5092825,15.3034975 C77.328124,14.1168179 75.3551419,14.0137433 74.070073,15.10792 C72.785004,16.1968109 71.4091779,17.3887763 69.825531,18.6745661 C68.7417062,19.5678795 67.2619697,19.763457 66.0755498,19.0723284 C64.1025678,18.0812263 62.032252,17.187913 59.9606209,16.4967844 C58.6768673,16.0990221 57.6903762,14.9110211 57.5930425,13.5234781 C57.4943934,11.5412739 57.2944645,9.65685843 57.1971307,7.97330632 C57.0011479,6.29107568 55.6200604,5 53.9390798,5 L45.6525553,5 C43.9768359,5 42.4970994,6.29107568 42.3945043,7.97330632 C42.1998367,9.65685843 42.0959263,11.5412739 41.9985926,13.5234781 C41.9012588,14.9110211 41.0121016,16.0990221 39.6296988,16.4967844 C37.4620492,17.187913 35.3864722,17.9834376 33.5160852,19.0723284 C32.3349266,19.763457 30.8551901,19.5678795 29.7647887,18.6745661 C28.2850522,17.3834904 26.8053157,16.0990221 25.521562,15.10792 C24.2364931,14.0190292 22.2635111,14.1168179 21.0823525,15.3034975 L15.2607402,21.1523214 C14.0795816,22.339001 13.9769866,24.3212052 15.0660726,25.6122809 C16.1498974,26.9033565 17.3363173,28.2856136 18.616125,29.8766628 C19.5052822,30.9655537 19.6999498,32.4522069 19.0120367,33.6441723 C18.0255457,35.6263765 17.1363884,37.7063695 16.4471601,39.7876839 C16.0525637,41.0774381 14.8700898,42.0685402 13.487687,42.166329 C11.514705,42.2654392 9.64037209,42.4663025 7.96465269,42.5640913 C6.29024861,42.7609902 5.00517966,44.1485332 5.00517966,45.8373712 L5.00517966,54.1626288 C4.90784588,55.8514668 6.19291483,57.33812 7.96465269,57.4359087 Z M49.7931869,37.7116554 C56.5039564,37.7116554 62.0269907,43.1627169 62.0269907,50.0026429 C62.0269907,56.7447802 56.6012902,62.2936305 49.7931869,62.2936305 C42.9850836,62.2936305 37.559383,56.7447802 37.559383,50.0026429 C37.559383,43.2605057 43.0824174,37.7116554 49.7931869,37.7116554 Z" id="Page-1"></path>
        </g>
    </g>
</svg>