<svg xmlns="http://www.w3.org/2000/svg" width="1850" height="363" viewBox="0 0 1850 363"><g fill="none"><path d="M61 186L52 186 52 274.2 0 274.2 0 32.9 69.7 32.9C88 32.9 102.7 34.4 113.6 37.6 124.6 40.7 134.3 46.1 142.7 53.8 157.4 66.8 164.7 84.7 164.7 107.3 164.7 135 156.5 155 140.2 167.3 134.6 171.6 128.1 175.2 120.7 178.1L197.9 274.2 140.2 274.2 71.9 185.7C69.7 185.9 66.1 186 61 186ZM101.9 140.2C110.3 134.4 114.5 124.7 114.5 111.1 114.5 97.5 111.1 87.4 104.2 80.9 97.4 74.4 83.1 71.2 61.4 71.2L52 71.2 52 147.7 56 147.7C79.8 147.7 95.1 145.2 101.9 140.2ZM259 274.2L208.4 274.2 208.4 89.2 259 84.9 259 274.2ZM212.4 8.7C218.2 2.9 225.2 0 233.3 0 241.5 0 248.5 2.9 254.3 8.7 260.1 14.4 263 21.4 263 29.4 263 37.5 260.1 44.6 254.3 50.6 248.5 56.6 241.5 59.6 233.3 59.6 225.2 59.6 218.2 56.7 212.4 50.8 206.6 44.9 203.7 37.8 203.7 29.6 203.7 21.4 206.6 14.4 212.4 8.7ZM356.2 124.6C339.8 124.6 331.7 130 331.7 140.9 331.7 146.7 334.4 151.6 340 155.7 345.5 159.8 352.2 163.3 360 166.4 367.8 169.4 375.7 172.7 383.5 176.5 391.3 180.2 398 185.6 403.5 192.5 409.1 199.5 411.9 208.1 411.9 218.2 411.9 236.3 405.7 250.9 393.4 262.1 381.1 273.3 363.1 278.9 339.2 278.9 328.4 278.9 317 277.7 305.1 275.3 293.2 272.9 284.5 270.1 278.9 267L291.2 230.8C310 237.1 326.9 240.2 342 240.2 357 240.2 364.5 234.3 364.5 222.5 364.5 217.5 361.8 212.9 356.2 208.8 350.7 204.7 344 200.9 336.2 197.4 328.3 193.9 320.5 190.1 312.7 186 304.9 181.9 298.2 176.2 292.6 168.7 287.1 161.2 284.3 152.6 284.3 142.7 284.3 124.1 290.5 109.9 302.8 100.1 315 90.2 332.6 85.3 355.5 85.3 378.4 85.3 396.3 89 409.3 96.5L397.4 132.2C380.8 127.2 367.1 124.6 356.2 124.6ZM612.2 271.2L688 153.5 613.9 33.2 669.5 33.2 715.1 115.2 760.2 33.2 816.6 33.2 748.8 137.8 715.4 115.2 820.5 274.2 762.4 274.2 714.3 190.7 665.9 274.2 612.4 274.2 556.8 274.2 484.2 179.9 484.2 274.2 433.6 274.2 433.6 21.7 484.2 18.1 484.2 168.3 545.6 89.2 600.5 89.2 540.6 164 538.1 167.2 533.7 172.7 612.2 271.2ZM900.8 278.9C876 278.9 855.4 270.9 839 254.9 822.6 238.8 814.5 214.6 814.5 182.2 814.5 149.9 822.5 125.7 838.7 109.6 854.8 93.6 875.5 85.6 900.8 85.6 915.7 85.6 932.7 88.4 951.7 93.9L942 130.4C927.3 127 915.5 125.4 906.6 125.4 892.4 125.4 881.5 129.6 873.9 138.2 866.3 146.7 862.5 161.8 862.5 183.5 862.5 205.2 866.7 220.2 875 228.7 883.3 237.1 894.9 241.3 909.8 241.3 917.5 241.3 929.3 240.1 945.2 237.7L951.4 270.6C932.3 276.1 915.5 278.9 900.8 278.9ZM1049 91.4C1058.8 87.5 1068.8 85.6 1078.9 85.6 1089.1 85.6 1097.8 87.1 1105.3 90.1 1112.8 93.1 1118.4 97.7 1122.3 103.7 1129.3 114.5 1132.8 129.1 1132.8 147.4L1132.8 274.2 1080 274.2 1080 156.4C1080 141 1076.8 131.9 1070.3 129 1067.1 127.5 1062.9 126.8 1057.6 126.8 1044.1 126.8 1032.7 131.3 1023.3 140.2L1023.3 274.2 972.7 274.2 972.7 22.4 1023.3 19.1 1023.3 105.5C1030.5 99.9 1039.1 95.2 1049 91.4ZM1322.8 269.2C1310.6 275.9 1304 278.2 1289.4 278.2 1274.9 278.2 1264.1 272.6 1257.1 261.5 1243.1 273.1 1226.8 278.9 1208 278.9 1189.2 278.9 1175 274.1 1165.3 264.6 1155.7 255.1 1150.9 242.2 1150.9 225.8 1150.9 214.9 1153 202.8 1157.6 195.1 1170.5 175.9 1190.2 166.2 1216.8 166.2L1251.3 166.2 1251.3 155C1251.3 142.4 1248.8 134.4 1243.7 130.8 1238.7 127.2 1230.1 125.4 1217.9 125.4 1205.7 125.4 1192.1 127.9 1176.9 132.9L1166.4 101.1C1175.3 95.8 1186.2 91.8 1199.1 89 1212 86.3 1223 84.9 1232.2 84.9 1256.7 84.9 1274.3 90.1 1284.7 100.6 1295.2 111.1 1300.4 129 1300.4 154.2L1300.4 230.1C1300.4 236.9 1303.5 240.2 1309.5 240.2 1312.6 240.2 1317.1 239.5 1322.8 238.1L1322.8 269.2ZM1221.7 245.3C1231.8 245.3 1241.7 242.2 1251.3 235.9L1251.3 198C1244.6 197.5 1236.7 198 1231.7 198 1207.8 198 1197.9 204.9 1197.9 220.4 1197.9 237 1205.8 245.3 1221.7 245.3ZM1591.7 84.5L1623.5 86.3C1642.3 86.3 1662.2 84.5 1683.1 80.9L1687.5 108.7C1682.9 109.9 1670.4 112 1649.9 114.9 1658.3 126.7 1662.5 140 1662.5 155 1662.5 175.7 1656.6 192.5 1644.6 205.5 1632.7 218.6 1615.6 225.1 1593.2 225.1 1585.2 225.1 1578.8 224.5 1574 223.2 1572.6 227.6 1571.9 231.3 1571.9 234.4 1571.9 242.4 1578.7 246.4 1592.4 246.4L1623.5 246.4C1642.1 246.4 1656.5 250.5 1666.9 258.8 1677.2 267.1 1682.4 278.6 1682.4 293.3 1682.4 314.8 1674.2 331.6 1657.8 343.9 1641.5 356.2 1620.3 362.3 1594.3 362.3 1568.2 362.3 1548.6 357.9 1535.2 349.1 1521.8 340.3 1515.1 327.9 1515.1 311.7 1515.1 302.4 1515.1 288.9 1522.7 278.2 1527.8 271.1 1533.7 264.6 1540.5 258.8 1533.5 252.5 1530 244.3 1530 234.4 1530 219.6 1541.1 205.2 1540.5 204.5 1536.7 199.9 1532.2 194 1530 189.1 1525.1 178.6 1522.7 167.3 1522.7 155 1522.7 134 1528.6 117 1540.2 104 1551.9 91 1569.1 84.5 1591.7 84.5ZM1612 282.5L1575.5 282.5C1563.2 286.6 1557 293.9 1557 304.5 1557 318 1570.8 324.8 1598.2 324.8 1625.7 324.8 1639.4 316 1639.4 298.4 1639.4 293.1 1637.4 289.1 1633.4 286.5 1629.5 283.8 1622.3 282.5 1612 282.5ZM1592.8 122.8C1576.2 122.8 1567.9 133.7 1567.9 155.3 1567.9 165.9 1569.9 173.6 1573.8 178.5 1577.8 183.3 1584.1 185.7 1592.8 185.7 1601.5 185.7 1607.7 183.3 1611.6 178.5 1615.4 173.6 1617.4 165.7 1617.4 154.8 1617.4 143.8 1615.4 135.8 1611.6 130.6 1607.7 125.4 1601.5 122.8 1592.8 122.8ZM1445 85.6C1466 85.6 1480.2 91 1487.8 101.7 1495.4 112.4 1499.2 127.6 1499.2 147.4L1499.2 274.2 1448.6 274.2 1448.6 156.4C1448.6 147 1447.1 139.7 1444.1 134.6 1441.1 129.4 1433.8 126.8 1422.2 126.8 1410.7 126.8 1400.2 131.3 1390.8 140.2L1390.8 274.2 1339.2 274.2 1339.2 88.9 1381.8 88.9 1386.1 109.5C1393.1 103 1402 97.4 1412.7 92.7 1423.4 88 1434.2 85.6 1445 85.6ZM1737.4 189.6C1737.8 225.7 1753.7 240.9 1785 240.9 1799.7 240.9 1814.3 238.2 1828.8 232.6L1837.4 267C1818.9 274.9 1798.3 278.9 1775.7 278.9 1718.6 278.9 1690 245.3 1690 178.1 1690 151.6 1697.1 129.6 1711.4 112 1725.6 94.4 1746 85.6 1772.8 85.6 1788.1 85.3 1801.1 87.9 1812 93.6 1828.2 102.1 1834.9 106.4 1843.7 129.1 1849.6 144.2 1850.8 164.4 1847.2 189.6L1737.4 189.6ZM1805.5 159.3C1805.5 135.5 1791.1 121.4 1774.2 121.4 1754 121.4 1741.8 134 1737.7 159.3L1805.5 159.3Z" fill="#1C2338"/></g></svg>
