<?xml version="1.0" encoding="UTF-8"?>
<svg width="671px" height="100px" viewBox="0 0 671 100" version="1.1" xmlns="http://www.w3.org/2000/svg" xmlns:xlink="http://www.w3.org/1999/xlink">
    <!-- Generator: Sketch 45.1 (43504) - http://www.bohemiancoding.com/sketch -->
    <title>Group 6</title>
    <desc>Created with Sketch.</desc>
    <defs></defs>
    <g id="Page-1" stroke="none" stroke-width="1" fill="none" fill-rule="evenodd">
        <g id="Group-6" transform="translate(1.000000, 1.000000)">
            <g id="Group-5">
                <g id="Group-4">
                    <path d="M13.6969822,70.8895977 C13.2047422,70.1078377 13.4410622,69.0757577 14.2228222,68.5846377 C15.0062622,68.0935177 16.0372222,68.3287177 16.5289022,69.1104777 C23.5350622,80.2673577 35.5705822,86.9268777 48.7244222,86.9268777 C62.1969022,86.9268777 74.7829022,79.6855177 81.5729022,68.0319177 C82.0377022,67.2327977 83.0625022,66.9628777 83.8599422,67.4271177 C84.6585022,67.8935977 84.9273022,68.9172777 84.4625022,69.7135977 C77.0766622,82.3947977 63.3824222,90.2723177 48.7244222,90.2723177 C34.4136222,90.2723177 21.3180222,83.0264777 13.6969822,70.8895977 Z" id="Fill-5" stroke="#FFFFFF" fill="#FFFFFE"></path>
                    <g id="Group-3">
                        <path d="M48.86896,3.17016 C23.6712,3.17016 3.17072,23.6712 3.17072,48.86896 C3.17072,74.06672 23.6712,94.56776 48.86896,94.56776 C74.06784,94.56776 94.56776,74.06672 94.56776,48.86896 C94.56776,23.6712 74.06784,3.17016 48.86896,3.17016 Z M48.86896,97.73792 C21.92344,97.73792 0,75.81448 0,48.86896 C0,21.92288 21.92344,0 48.86896,0 C75.8156,0 97.73792,21.92288 97.73792,48.86896 C97.73792,75.81448 75.8156,97.73792 48.86896,97.73792 L48.86896,97.73792 Z" id="Fill-3" stroke="#0090FF" fill="#0090FF"></path>
                        <path d="M12.3111898,34.83704 C12.0860698,34.83704 11.8575898,34.79168 11.6375098,34.6948 C10.7919098,34.32128 10.4094298,33.33512 10.7835098,32.49064 C17.3948698,17.51456 32.2415898,7.84 48.6087098,7.84 C64.6157498,7.84 79.3308698,17.21944 86.0956698,31.73576 C86.4848698,32.57352 86.1231098,33.56808 85.2864698,33.9584 C84.4487098,34.34816 83.4541498,33.98528 83.0638298,33.1492 C76.8450298,19.80552 63.3215898,11.18544 48.6087098,11.18544 C33.5659898,11.18544 19.9204698,20.07768 13.8427898,33.8408 C13.5667098,34.468 12.9546298,34.83704 12.3111898,34.83704" id="Fill-4" stroke="#FFFFFF" fill="#FFFFFE"></path>
                        <path d="M61.5097669,78.4583246 C60.9128069,78.4583246 60.3410469,78.1200846 60.0716869,77.5444046 C59.7032069,76.7497646 60.0464869,75.8061646 60.8394469,75.4371246 C71.1272069,70.6452046 77.7738469,60.2191246 77.7738469,48.8774446 C77.7738469,37.2815246 70.9172069,26.7602446 60.3046469,22.0758446 C59.5038469,21.7230446 59.1420869,20.7856046 59.4954469,19.9853646 C59.8499269,19.1845646 60.7828869,18.8211246 61.5853669,19.1761646 C73.3453669,24.3668046 80.9440069,36.0265646 80.9440069,48.8774446 C80.9440069,61.4472046 73.5772069,73.0000046 62.1784069,78.3099246 C61.9616869,78.4112846 61.7343269,78.4583246 61.5097669,78.4583246" id="Fill-6" stroke="#0090FF" fill="#0090FF"></path>
                    </g>
                    <path d="M33.17776,77.3053583 C32.90616,77.3053583 32.63176,77.2375983 32.38144,77.0908783 C22.42464,71.2915183 16.24,60.5378383 16.24,49.0287183 C16.24,37.7895183 21.9296,27.5079183 31.46024,21.5231983 C32.20112,21.0567183 33.18,21.2818383 33.64592,22.0227183 C34.11072,22.7635983 33.88728,23.7419183 33.14584,24.2083983 C24.5448,29.6090383 19.4096,38.8871183 19.4096,49.0287183 C19.4096,59.4150383 24.99224,69.1170383 33.97688,74.3519183 C34.73288,74.7915183 34.9888,75.7619983 34.54808,76.5191183 C34.25408,77.0247983 33.7232,77.3053583 33.17776,77.3053583" id="Fill-7" stroke="#0090FF" fill="#0090FF"></path>
                    <path d="M64.3384,40.754 C64.3384,38.03016 61.78144,36.66712 56.67032,36.66712 L36.60328,36.66712 L36.60328,48.14768 L57.49688,48.14768 C62.05696,48.14768 64.3384,47.02992 64.3384,44.79496 L64.3384,40.754 Z M68.92984,44.38112 C68.92984,49.37128 64.98184,51.86608 57.0836,51.86608 L45.64952,51.86608 L65.394,60.49848 C66.19032,60.928 66.58848,61.47904 66.58848,62.15216 C66.58848,62.734 66.4048,63.26208 66.03688,63.73696 C65.66952,64.21128 65.17952,64.44872 64.568,64.44872 C64.26224,64.44872 63.9548,64.35688 63.6496,64.17208 L36.60328,51.5452 L36.60328,62.4736 C36.60328,63.79016 35.83776,64.44872 34.30728,64.44872 C32.7152,64.44872 31.92,63.79016 31.92,62.4736 L31.92,34.46296 C31.92,33.51488 32.424,33.04 33.4348,33.04 L55.98096,33.04 C64.61392,33.04 68.92984,35.68768 68.92984,40.98304 L68.92984,44.38112 L68.92984,44.38112 Z" id="Fill-8" stroke="#FFFFFF" fill="#FFFFFE"></path>
                </g>
                <g id="Group" transform="translate(123.000000, 29.000000)">
                    <path d="M40.691,10.203 C40.691,6.827 37.525,5.139 31.191,5.139 L6.33,5.139 L6.33,19.362 L32.215,19.362 C37.867,19.362 40.691,17.977 40.691,15.209 L40.691,10.203 Z M46.381,14.697 C46.381,20.878 41.488,23.969 31.703,23.969 L17.537,23.969 L42.002,34.665 C42.986,35.197 43.48,35.879 43.48,36.714 C43.48,37.435 43.252,38.089 42.797,38.676 C42.342,39.264 41.734,39.557 40.977,39.557 C40.598,39.557 40.217,39.444 39.84,39.216 L6.33,23.571 L6.33,37.112 C6.33,38.742 5.381,39.557 3.486,39.557 C1.514,39.557 0.527,38.742 0.527,37.112 L0.527,2.408 C0.527,1.233 1.152,0.643 2.404,0.643 L30.338,0.643 C41.033,0.643 46.381,3.925 46.381,10.486 L46.381,14.697 L46.381,14.697 Z" id="Fill-9" fill="#FFFFFE"></path>
                    <path d="M62.766,37.112 C62.766,38.704 61.799,39.502 59.865,39.502 C57.93,39.502 56.963,38.704 56.963,37.112 L56.963,2.692 C56.963,1.098 57.967,0.302 59.979,0.302 C61.836,0.302 62.766,1.098 62.766,2.692 L62.766,37.112" id="Fill-10" fill="#FFFFFE"></path>
                    <path d="M115.504,30.342 C115.504,36.296 110.668,39.273 100.996,39.273 L75.283,39.273 C73.879,39.273 73.178,38.459 73.178,36.826 C73.178,35.386 73.879,34.665 75.283,34.665 L101.736,34.665 C107.047,34.665 109.701,33.128 109.701,30.057 L109.701,26.756 C109.701,23.383 106.553,21.693 100.258,21.693 L88.537,21.693 C78.486,21.693 73.461,18.982 73.461,13.558 L73.461,9.69 C73.461,3.66 77.861,0.643 86.66,0.643 L93.09,0.643 C94.529,0.643 95.25,1.402 95.25,2.92 C95.25,4.398 94.529,5.139 93.09,5.139 L85.75,5.139 C81.389,5.139 79.207,6.788 79.207,10.088 L79.207,13.046 C79.207,15.815 82.014,17.199 87.627,17.199 L99.518,17.199 C104.865,17.199 108.867,17.939 111.521,19.417 C114.176,20.897 115.504,23.173 115.504,26.244 L115.504,30.342" id="Fill-11" fill="#FFFFFE"></path>
                    <path d="M137.236,19.532 L165.854,34.779 C166.309,35.045 166.658,35.376 166.906,35.774 C167.152,36.172 167.275,36.543 167.275,36.884 C167.275,37.567 167.039,38.173 166.564,38.704 C166.09,39.236 165.492,39.502 164.771,39.502 C164.355,39.502 163.881,39.349 163.35,39.045 L132.742,22.376 L132.742,37.112 C132.742,38.742 131.813,39.557 129.955,39.557 C128.059,39.557 127.109,38.742 127.109,37.112 L127.109,2.692 C127.109,1.098 128.078,0.302 130.012,0.302 C131.832,0.302 132.742,1.098 132.742,2.692 L132.742,16.972 L161.928,0.757 C162.496,0.455 163.008,0.302 163.463,0.302 C164.223,0.302 164.867,0.567 165.398,1.098 C165.93,1.631 166.195,2.219 166.195,2.863 C166.195,3.205 166.1,3.545 165.91,3.886 C165.721,4.229 165.379,4.533 164.887,4.796 L137.236,19.532" id="Fill-12" fill="#FFFFFE"></path>
                    <path d="M202.236,19.873 L219.873,35.177 C220.479,35.746 220.783,36.353 220.783,36.998 C220.783,37.643 220.525,38.212 220.018,38.704 C219.506,39.197 218.867,39.444 218.109,39.444 C217.463,39.444 216.818,39.18 216.174,38.646 L198.367,23.344 L180.844,38.59 C180.199,39.159 179.535,39.444 178.854,39.444 C178.133,39.444 177.498,39.188 176.949,38.676 C176.398,38.164 176.123,37.567 176.123,36.884 C176.086,36.543 176.17,36.238 176.379,35.974 C176.588,35.708 176.863,35.424 177.203,35.12 L194.611,19.873 L177.09,4.57 C176.406,4.001 176.066,3.376 176.066,2.692 C176.066,2.047 176.332,1.489 176.863,1.014 C177.395,0.54 178.037,0.302 178.797,0.302 C179.137,0.302 179.469,0.38 179.793,0.531 C180.113,0.682 180.428,0.872 180.73,1.098 L198.367,16.631 L216.059,1.155 C216.668,0.588 217.313,0.302 217.994,0.302 C218.754,0.302 219.398,0.549 219.93,1.043 C220.459,1.535 220.725,2.105 220.725,2.749 C220.688,3.053 220.604,3.367 220.471,3.687 C220.338,4.01 220.102,4.323 219.76,4.627 L202.236,19.873" id="Fill-13" fill="#0090FF"></path>
                    <path d="M241.504,5.139 C235.059,5.139 231.834,6.656 231.834,9.69 L231.834,29.375 C231.834,32.901 235.379,34.665 242.473,34.665 L263.691,34.665 C265.096,34.665 265.797,35.404 265.797,36.884 C265.797,38.478 265.096,39.273 263.691,39.273 L241.678,39.273 C231.322,39.273 226.145,36.051 226.145,29.602 L226.145,9.69 C226.145,3.66 231.207,0.643 241.334,0.643 L263.691,0.643 C265.096,0.643 265.797,1.384 265.797,2.863 C265.797,4.38 265.096,5.139 263.691,5.139 L241.504,5.139" id="Fill-14" fill="#0090FF"></path>
                    <path d="M322.346,37.112 C322.346,38.742 321.381,39.557 319.445,39.557 C317.588,39.557 316.66,38.742 316.66,37.112 L316.66,22.434 L281.842,22.434 L281.842,37.112 C281.842,38.742 280.854,39.557 278.883,39.557 C276.984,39.557 276.037,38.742 276.037,37.112 L276.037,2.692 C276.037,1.098 277.025,0.302 278.996,0.302 C280.891,0.302 281.842,1.098 281.842,2.692 L281.842,17.769 L316.66,17.769 L316.66,2.692 C316.66,1.098 317.57,0.302 319.391,0.302 C321.361,0.302 322.346,1.098 322.346,2.692 L322.346,37.112" id="Fill-15" fill="#0090FF"></path>
                    <path d="M345.33,24.083 L368.713,24.083 L357.164,5.537 L345.33,24.083 Z M371.9,28.748 L342.258,28.748 L335.83,38.306 C335.523,38.725 335.186,39.037 334.805,39.246 C334.426,39.452 334.084,39.557 333.781,39.557 C332.984,39.557 332.273,39.321 331.646,38.846 C331.021,38.372 330.711,37.718 330.711,36.884 C330.711,36.429 330.863,35.955 331.164,35.461 L353.295,2.18 C353.711,1.535 354.271,1.043 354.975,0.7 C355.676,0.359 356.367,0.188 357.049,0.188 C358.531,0.188 359.725,0.853 360.635,2.18 L382.994,35.461 C383.258,35.689 383.42,35.937 383.477,36.201 C383.535,36.467 383.561,36.693 383.561,36.884 C383.561,37.68 383.266,38.306 382.68,38.761 C382.09,39.216 381.42,39.444 380.66,39.444 C380.281,39.444 379.871,39.349 379.438,39.159 C379.002,38.969 378.611,38.667 378.273,38.249 L371.9,28.748 L371.9,28.748 Z" id="Fill-16" fill="#0090FF"></path>
                    <path d="M437.836,35.689 C437.836,37.018 437.494,37.992 436.813,38.619 C436.131,39.246 435.313,39.557 434.365,39.557 C433.949,39.557 433.502,39.473 433.027,39.301 C432.553,39.132 432.109,38.839 431.689,38.42 L397.498,7.87 L397.498,37.112 C397.498,38.742 396.551,39.557 394.652,39.557 C392.797,39.557 391.867,38.742 391.867,37.112 L391.867,3.943 C391.867,2.731 392.236,1.848 392.977,1.299 C393.717,0.748 394.521,0.474 395.395,0.474 C395.924,0.474 396.447,0.559 396.961,0.73 C397.473,0.899 397.938,1.194 398.354,1.61 L432.201,31.536 L432.201,2.692 C432.201,1.098 433.189,0.302 435.16,0.302 C436.945,0.302 437.836,1.098 437.836,2.692 L437.836,35.689" id="Fill-17" fill="#0090FF"></path>
                    <path d="M494.326,29.83 C494.326,36.126 489.529,39.273 479.932,39.273 L464.23,39.273 C453.801,39.273 448.586,36.145 448.586,29.887 L448.586,9.803 C448.586,3.698 453.855,0.643 464.402,0.643 L470.547,0.643 C471.914,0.643 472.596,1.384 472.596,2.863 C472.596,4.38 471.914,5.139 470.547,5.139 L466.109,5.139 C458.297,5.139 454.391,6.694 454.391,9.803 L454.391,29.887 C454.391,33.073 457.725,34.665 464.402,34.665 L479.932,34.665 C485.623,34.665 488.467,33.109 488.467,30 L488.467,19.646 C488.467,18.091 489.451,17.313 491.426,17.313 C493.361,17.313 494.326,18.091 494.326,19.646 L494.326,29.83" id="Fill-18" fill="#0090FF"></path>
                    <path d="M510.598,17.769 L544.619,17.769 C545.945,17.769 546.609,18.546 546.609,20.101 C546.609,21.656 545.945,22.434 544.619,22.434 L510.598,22.434 L510.598,29.716 C510.598,33.016 513.727,34.665 519.982,34.665 L544.619,34.665 C546.061,34.665 546.781,35.404 546.781,36.884 C546.781,38.478 546.061,39.273 544.619,39.273 L519.814,39.273 C509.801,39.273 504.797,36.163 504.797,29.942 L504.797,10.146 C504.797,3.811 509.971,0.643 520.326,0.643 L527.041,0.643 C528.404,0.643 529.09,1.402 529.09,2.92 C529.09,4.398 528.404,5.139 527.041,5.139 L522.545,5.139 C514.58,5.139 510.598,6.809 510.598,10.146 L510.598,17.769" id="Fill-19" fill="#0090FF"></path>
                </g>
            </g>
        </g>
    </g>
</svg>
