<svg xmlns="http://www.w3.org/2000/svg" width="228" height="228" viewBox="0 0 228 228"><g id="Page-1" fill="none"><g id="Artboard-Copy-6" fill="#1C2338"><path d="M111.8 144.2L93.6 121.9C96.1 121 98.2 119.8 100 118.4 105.4 114.5 108.1 108 108.1 99.1 108.1 91.7 105.9 75 83.5 75L54 75 54 153 71.1 153 71.1 124.5 74.1 124.5C75.7 124.5 76.9 124.5 77.6 124.4L100 153 112.5 153 124.3 153 140.1 126 155.9 153 175 153 140.5 101.5 151.4 108.9 173.7 75 155.2 75 140.4 101.5 125.4 75 107.2 75 131.5 113.9 111.8 144.2ZM114 228C51 228 0 177 0 114 0 51 51 0 114 0 177 0 228 51 228 114 228 177 177 228 114 228ZM87.5 109.7C85.3 111.3 80.2 112.1 72.4 112.1L71.1 112.1 71.1 87.4 74.2 87.4C81.3 87.4 86 88.4 88.2 90.5 90.5 92.6 91.6 95.9 91.6 100.3 91.6 104.7 90.2 107.8 87.5 109.7Z" id="Combined-Shape"/></g></g></svg>
