<svg width="671" height="100" viewBox="0 0 671 100" xmlns="http://www.w3.org/2000/svg"><title>Group 6</title><g fill="none" fill-rule="evenodd"><path d="M14.697 71.89a1.673 1.673 0 0 1 2.832-1.78c7.006 11.157 19.042 17.817 32.195 17.817 13.473 0 26.059-7.241 32.849-18.895a1.673 1.673 0 1 1 2.89 1.682c-7.386 12.68-21.08 20.558-35.739 20.558-14.31 0-27.406-7.246-35.027-19.382z" stroke="#FFF" fill="#FFFFFE"/><path d="M49.869 4.17c-25.198 0-45.698 20.501-45.698 45.7 0 25.198 20.5 45.699 45.698 45.699 25.199 0 45.699-20.501 45.699-45.699 0-25.198-20.5-45.699-45.699-45.699zm0 94.568C22.923 98.738 1 76.814 1 49.869 1 22.923 22.923 1 49.869 1c26.947 0 48.869 21.923 48.869 48.869 0 26.945-21.922 48.869-48.869 48.869z" stroke="#0090FF" fill="#0090FF"/><path d="M13.311 35.837a1.67 1.67 0 0 1-1.528-2.346C18.396 18.515 33.243 8.84 49.61 8.84c16.007 0 30.722 9.38 37.487 23.896a1.674 1.674 0 0 1-3.032 1.413C77.846 20.806 64.323 12.185 49.61 12.185a38.024 38.024 0 0 0-34.766 22.656 1.668 1.668 0 0 1-1.532.996" stroke="#FFF" fill="#FFFFFE"/><path d="M62.51 79.458a1.587 1.587 0 0 1-1.438-.914 1.587 1.587 0 0 1 .767-2.107c10.288-4.792 16.935-15.218 16.935-26.56a29.313 29.313 0 0 0-17.47-26.801 1.585 1.585 0 0 1 1.281-2.9 32.484 32.484 0 0 1 19.359 29.701c0 12.57-7.367 24.123-18.766 29.433a1.572 1.572 0 0 1-.668.148m-28.332-1.153c-.272 0-.546-.067-.797-.214-9.956-5.8-16.141-16.553-16.141-28.062 0-11.24 5.69-21.521 15.22-27.506a1.585 1.585 0 1 1 1.686 2.685c-8.601 5.401-13.736 14.68-13.736 24.82 0 10.387 5.582 20.089 14.567 25.324a1.584 1.584 0 0 1-.8 2.953" stroke="#0090FF" fill="#0090FF"/><path d="M65.338 41.754c0-2.724-2.557-4.087-7.668-4.087H37.603v11.48h20.894c4.56 0 6.841-1.117 6.841-3.352v-4.041zm4.592 3.627c0 4.99-3.948 7.485-11.846 7.485H46.65l19.744 8.632c.796.43 1.194.981 1.194 1.654 0 .582-.183 1.11-.551 1.585-.367.474-.857.712-1.469.712-.306 0-.613-.092-.918-.277L37.603 52.545v10.929c0 1.316-.765 1.975-2.296 1.975-1.592 0-2.387-.659-2.387-1.975V35.463c0-.948.504-1.423 1.515-1.423H56.98c8.633 0 12.949 2.648 12.949 7.943v3.398z" stroke="#FFF" fill="#FFFFFE"/><path d="M164.691 40.203c0-3.376-3.166-5.064-9.5-5.064H130.33v14.223h25.885c5.652 0 8.476-1.385 8.476-4.153v-5.006zm5.69 4.494c0 6.181-4.893 9.272-14.678 9.272h-14.166l24.465 10.696c.984.532 1.478 1.214 1.478 2.049 0 .721-.228 1.375-.683 1.962-.455.588-1.063.881-1.82.881-.379 0-.76-.113-1.137-.341l-33.51-15.645v13.541c0 1.63-.949 2.445-2.844 2.445-1.972 0-2.959-.815-2.959-2.445V32.408c0-1.175.625-1.765 1.877-1.765h27.934c10.695 0 16.043 3.282 16.043 9.843v4.211zm16.385 22.415c0 1.592-.967 2.39-2.901 2.39-1.935 0-2.902-.798-2.902-2.39v-34.42c0-1.594 1.004-2.39 3.016-2.39 1.857 0 2.787.796 2.787 2.39v34.42m52.738-6.77c0 5.954-4.836 8.931-14.508 8.931h-25.713c-1.404 0-2.105-.814-2.105-2.447 0-1.44.701-2.161 2.105-2.161h26.453c5.311 0 7.965-1.537 7.965-4.608v-3.301c0-3.373-3.148-5.063-9.443-5.063h-11.721c-10.051 0-15.076-2.711-15.076-8.135V39.69c0-6.03 4.4-9.047 13.199-9.047h6.43c1.439 0 2.16.759 2.16 2.277 0 1.478-.721 2.219-2.16 2.219h-7.34c-4.361 0-6.543 1.649-6.543 4.949v2.958c0 2.769 2.807 4.153 8.42 4.153h11.891c5.347 0 9.349.74 12.003 2.218 2.655 1.48 3.983 3.756 3.983 6.827v4.098m21.732-10.81l28.618 15.247c.455.266.804.597 1.052.995.246.398.369.769.369 1.11 0 .683-.236 1.289-.711 1.82-.474.532-1.072.798-1.793.798-.416 0-.89-.153-1.421-.457l-30.608-16.669v14.736c0 1.63-.929 2.445-2.787 2.445-1.896 0-2.846-.815-2.846-2.445v-34.42c0-1.594.969-2.39 2.903-2.39 1.82 0 2.73.796 2.73 2.39v14.28l29.186-16.215c.568-.302 1.08-.455 1.535-.455.76 0 1.404.265 1.935.796.532.533.797 1.121.797 1.765 0 .342-.095.682-.285 1.023-.189.343-.531.647-1.023.91l-27.651 14.736" fill="#FFFFFE"/><path d="M326.236 49.873l17.637 15.304c.606.569.91 1.176.91 1.821s-.258 1.214-.765 1.706c-.512.493-1.151.74-1.909.74-.646 0-1.291-.264-1.935-.798l-17.807-15.302-17.523 15.246c-.645.569-1.309.854-1.99.854-.721 0-1.356-.256-1.905-.768-.551-.512-.826-1.109-.826-1.792a1.204 1.204 0 0 1 .256-.91 6.89 6.89 0 0 1 .824-.854l17.408-15.247L301.09 34.57c-.684-.569-1.024-1.194-1.024-1.878 0-.645.266-1.203.797-1.678.532-.474 1.174-.712 1.934-.712.34 0 .672.078.996.229.32.151.635.341.937.567l17.637 15.533 17.692-15.476c.609-.567 1.254-.853 1.935-.853.76 0 1.404.247 1.936.741.529.492.795 1.062.795 1.706a3.57 3.57 0 0 1-.254.938c-.133.323-.369.636-.711.94l-17.524 15.246m39.268-14.734c-6.445 0-9.67 1.517-9.67 4.551v19.685c0 3.526 3.545 5.29 10.639 5.29h21.218c1.405 0 2.106.739 2.106 2.219 0 1.594-.701 2.389-2.106 2.389h-22.013c-10.356 0-15.533-3.222-15.533-9.671V39.69c0-6.03 5.062-9.047 15.189-9.047h22.357c1.405 0 2.106.741 2.106 2.22 0 1.517-.701 2.276-2.106 2.276h-22.187m80.842 31.973c0 1.63-.965 2.445-2.901 2.445-1.857 0-2.785-.815-2.785-2.445V52.434h-34.818v14.678c0 1.63-.988 2.445-2.959 2.445-1.899 0-2.846-.815-2.846-2.445v-34.42c0-1.594.988-2.39 2.959-2.39 1.895 0 2.846.796 2.846 2.39v15.077h34.818V32.692c0-1.594.91-2.39 2.731-2.39 1.97 0 2.955.796 2.955 2.39v34.42m22.984-13.029h23.383l-11.549-18.546-11.834 18.546zm26.57 4.665h-29.642l-6.428 9.558c-.307.419-.644.731-1.025.94-.379.206-.721.311-1.024.311a3.441 3.441 0 0 1-2.135-.711c-.625-.474-.935-1.128-.935-1.962 0-.455.152-.929.453-1.423l22.131-33.281a4.085 4.085 0 0 1 1.68-1.48c.701-.341 1.392-.512 2.074-.512 1.482 0 2.676.665 3.586 1.992l22.359 33.281c.264.228.426.476.483.74.058.266.084.492.084.683 0 .796-.295 1.422-.881 1.877-.59.455-1.26.683-2.02.683-.379 0-.789-.095-1.222-.285a3.077 3.077 0 0 1-1.165-.91l-6.373-9.501zm65.936 6.941c0 1.329-.342 2.303-1.023 2.93-.682.627-1.5.938-2.448.938-.416 0-.863-.084-1.338-.256-.474-.169-.918-.462-1.338-.881l-34.191-30.55v29.242c0 1.63-.947 2.445-2.846 2.445-1.855 0-2.785-.815-2.785-2.445V33.943c0-1.212.369-2.095 1.11-2.644.74-.551 1.544-.825 2.418-.825.529 0 1.052.085 1.566.256.512.169.977.464 1.393.88l33.847 29.926V32.692c0-1.594.988-2.39 2.959-2.39 1.785 0 2.676.796 2.676 2.39v32.997m56.49-5.859c0 6.296-4.797 9.443-14.394 9.443H588.23c-10.429 0-15.644-3.128-15.644-9.386V39.803c0-6.105 5.269-9.16 15.816-9.16h6.145c1.367 0 2.049.741 2.049 2.22 0 1.517-.682 2.276-2.049 2.276h-4.438c-7.812 0-11.718 1.555-11.718 4.664v20.084c0 3.186 3.334 4.778 10.011 4.778h15.53c5.691 0 8.535-1.556 8.535-4.665V49.646c0-1.555.984-2.333 2.959-2.333 1.935 0 2.9.778 2.9 2.333V59.83m16.272-12.061h34.021c1.326 0 1.99.777 1.99 2.332 0 1.555-.664 2.333-1.99 2.333h-34.021v7.282c0 3.3 3.129 4.949 9.384 4.949h24.637c1.442 0 2.162.739 2.162 2.219 0 1.594-.72 2.389-2.162 2.389h-24.805c-10.013 0-15.017-3.11-15.017-9.331V40.146c0-6.335 5.174-9.503 15.529-9.503h6.715c1.363 0 2.049.759 2.049 2.277 0 1.478-.686 2.219-2.049 2.219h-4.496c-7.965 0-11.947 1.67-11.947 5.007v7.623" fill="#0090FF"/></g></svg>